<svg width="36" height="48" viewBox="0 0 36 48" fill="none" xmlns="http://www.w3.org/2000/svg">
<path d="M33.2709 0.0462016C31.2406 -0.298812 28.773 1.3627 27.3136 2.56117C25.3938 4.13643 23.916 6.33362 22.4842 8.33107C19.9981 11.7948 17.8297 15.4674 15.979 19.2898C15.4818 17.7372 14.9846 16.1892 14.4827 14.6412C13.7461 12.3668 12.9313 9.91541 10.7859 8.55805C7.03837 6.18835 1.22835 9.52046 0.643668 13.6742C0.279966 16.2437 1.57364 18.745 2.64172 20.9967C3.82491 23.4935 5.11858 25.9313 6.52274 28.3146C9.25741 32.9542 12.4064 37.3395 15.8961 41.4569C14.7267 43.4725 13.5528 45.4881 12.388 47.5037C11.9322 48.2891 13.1108 47.9396 13.4791 47.8079C14.2756 47.5264 15.537 46.909 15.9836 46.1418C16.9044 44.553 17.8251 42.9641 18.7459 41.3798C19.6436 40.8078 20.394 40.095 20.1869 39.8499C20.0764 39.7228 19.9705 39.5911 19.86 39.464C21.7292 36.2409 23.5983 33.0132 25.4306 29.7673C28.308 24.6784 31.2406 19.4986 33.3814 14.0556C34.4403 11.359 35.2552 8.53082 35.3795 5.62544C35.4485 3.80504 35.6649 0.45931 33.2709 0.0462016ZM30.6191 12.7255C28.8697 18.8086 25.5411 24.5059 22.4566 30.0079C21.057 32.5047 19.6298 34.9879 18.198 37.4666C13.1937 31.2745 8.93514 24.465 5.70326 17.2106C4.83775 15.2677 3.99985 13.0886 4.67201 10.9686C4.72265 10.8052 4.93903 10.4829 5.08635 10.2286C5.35337 10.2377 5.70326 10.2241 5.869 10.2695C6.99694 10.5873 7.93151 11.3545 8.62669 12.267C9.89734 13.9375 10.4268 16.0757 11.0575 18.0369C11.8402 20.4792 12.6274 22.9261 13.4101 25.3684C13.6817 26.2218 17.0241 23.9202 17.2358 23.3709C19.4825 17.5602 22.4289 12.049 26.0752 6.96917C26.8808 5.84788 27.7187 4.7402 28.5934 3.66885C28.9756 3.20126 29.3715 2.45222 29.9378 2.43406C30.6007 2.41136 31.0381 3.23304 31.2222 3.74148C32.2028 6.4108 31.3742 10.1061 30.6191 12.7255Z" fill="#F7F9FA"/>
</svg>
